<?xml version="1.0" encoding="UTF-8" standalone="no"?>
<svg
   xmlns:dc="http://purl.org/dc/elements/1.1/"
   xmlns:cc="http://creativecommons.org/ns#"
   xmlns:rdf="http://www.w3.org/1999/02/22-rdf-syntax-ns#"
   xmlns:svg="http://www.w3.org/2000/svg"
   xmlns="http://www.w3.org/2000/svg"
   width="64"
   height="64"
   viewBox="0 0 16.933333 16.933333"
   version="1.1"
   id="svg50">
  <defs
     id="defs44" />
  <metadata
     id="metadata47">
    <rdf:RDF>
      <cc:Work
         rdf:about="">
        <dc:format>image/svg+xml</dc:format>
        <dc:type
           rdf:resource="http://purl.org/dc/dcmitype/StillImage" />
        <dc:title></dc:title>
      </cc:Work>
    </rdf:RDF>
  </metadata>
  <g
     id="layer1">
    <path
       style="fill:#040404;stroke:none;stroke-width:0.00767366"
       d="m 14.063162,15.072876 c 0.0041,-0.196676 0.0077,-0.39366 0.0077,-0.590873 0,-0.05525 0.02226,-0.173194 -0.009,-0.220081 -0.01995,-0.02992 -0.08296,-0.0178 -0.113723,-0.0178 h -0.245556 c -0.03124,0 -0.07827,0.0086 -0.106352,-0.0079 -0.02371,-0.01382 -0.02915,-0.04366 -0.03108,-0.06883 -0.01872,-0.248704 0.0052,-0.502626 -8.24e-4,-0.75202 -0.01834,-0.748182 -0.02295,-1.499819 -0.02295,-2.248385 0,-0.662469 0.0095,-1.3305381 -0.07896,-1.9874806 C 13.408188,8.7771977 13.298224,8.3814357 13.194168,7.9900939 12.938533,7.0291215 12.510802,6.0749618 11.990834,5.2276121 11.788019,4.8971608 11.553972,4.5921321 11.320616,4.28375 10.744247,3.5222466 10.036197,2.9016619 9.2670671,2.343011 9.0834738,2.2096895 8.8924988,2.0823041 8.6992915,1.9633129 8.6394037,1.9264291 8.5525168,1.8443585 8.4767545,1.8631819 8.4185654,1.8776346 8.3651041,1.930796 8.3156079,1.963046 8.1766537,2.0535862 8.0426178,2.152238 7.9067095,2.2472381 7.3847683,2.6120798 6.8921813,3.0180324 6.435858,3.4619851 6.173833,3.7169051 5.9105035,3.9668894 5.682465,4.2543603 4.4173221,5.8491792 3.6162685,7.8554842 3.3751771,9.8701819 c -0.031187,0.2606731 -0.00146,0.5430661 -0.00146,0.8057351 v 1.626817 1.365915 0.352988 c 0,0.04105 0.012842,0.109355 -0.013365,0.144035 -0.023401,0.031 -0.067595,0.02478 -0.1017374,0.02478 -0.088734,0 -0.1802924,-4.94e-4 -0.2685777,-0.009 -0.033331,-0.0032 -0.098031,-0.02187 -0.1213974,0.01228 -0.029012,0.04244 -0.00378,0.13306 -0.00165,0.180867 0.00709,0.160917 0.00796,0.322216 0.00796,0.48344 0,0.04512 -0.02051,0.15992 0.013365,0.193839 0.033031,0.033 0.1423475,0.01334 0.1861481,0.01334 h 0.5294834 c 0.6985416,0 1.395741,0.0077 2.0949107,0.0077 H 14.063163 M 8.6225322,14.159707 v -0.01535 c 0.2378767,-0.1171 0.5025252,-0.188005 0.7059776,-0.369641 0.2185457,-0.195218 0.3780821,-0.469628 0.476458,-0.743042 0.161531,-0.448678 0.2282142,-0.932503 0.1151819,-1.404281 -0.044661,-0.186394 -0.1274605,-0.358205 -0.2111789,-0.529483 -0.03568,-0.07282 -0.090317,-0.144957 -0.1142613,-0.222537 -0.043048,-0.139353 0.020101,-0.332347 0.052413,-0.468093 0.015967,-0.06676 0.064149,-0.142807 0.024935,-0.207188 -0.026246,-0.04297 -0.089094,-0.153627 -0.1438811,-0.159768 -0.032458,-0.0037 -0.083571,0.08427 -0.1159494,0.103361 -0.1095037,0.06485 -0.2856752,0.08096 -0.3983399,0.01834 C 8.9173304,10.1084 8.8402334,9.9629819 8.7837011,9.8701299 8.5869403,9.5469154 8.5087998,9.1707135 8.4923777,8.7958162 8.4790122,8.4905196 8.5616806,8.0578088 8.8834361,7.929512 8.9314141,7.910382 9.0001978,7.889095 9.0522565,7.891939 9.1582456,7.897759 9.2832339,7.97817 9.358512,7.858831 9.4144493,7.7701446 9.3116986,7.7052271 9.2740285,7.6370938 9.2303891,7.5579974 9.2139854,7.4349372 9.2234102,7.3454938 9.2596729,7.0016362 9.4308762,6.6751741 9.4796813,6.3325685 9.5104502,6.1166853 9.4635688,5.8578604 9.4049429,5.6496121 9.2988931,5.2726513 9.0705858,4.899073 8.7453147,4.6707434 8.5427679,4.5285658 8.2977483,4.4358678 8.0623574,4.3656847 7.9262657,4.3251026 7.7670516,4.2943435 7.624959,4.2843849 7.5697496,4.2805023 7.4593222,4.3047098 7.4151072,4.2637298 7.3678861,4.2199836 7.3823485,4.0679134 7.3796987,4.0074529 7.3701865,3.7904185 7.3333706,3.5725174 7.3333609,3.3551908 c 0,-0.05783 -0.032371,-0.1646234 0.00437,-0.2126675 C 7.40378,3.0560792 7.5242291,2.9881361 7.6103277,2.9221664 7.8061601,2.7721306 8.0023221,2.6269363 8.2081914,2.4906212 c 0.069943,-0.046318 0.1421553,-0.088958 0.2148632,-0.1306979 0.029885,-0.017161 0.063013,-0.048017 0.099757,-0.044911 0.077136,0.0065 0.1673323,0.087289 0.2302106,0.1281093 0.1864159,0.121015 0.370085,0.2496563 0.5432946,0.3886182 0.6699137,0.5372805 1.3112772,1.1317747 1.8469752,1.8048394 0.391434,0.4918445 0.703598,1.0293463 0.986756,1.588565 0.10835,0.213941 0.238345,0.4288664 0.325824,0.6522622 0.12508,0.3194998 0.226143,0.6536355 0.323676,0.9822291 0.13521,0.4555391 0.264205,0.9242021 0.323061,1.3966078 0.10221,0.8214657 0.04228,1.6453097 0.07843,2.4709207 0.02655,0.607219 0.02271,1.218042 0.02271,1.826336 0,0.158844 0.0077,0.316766 0.0077,0.475767 0,0.04688 0.01796,0.14081 -0.0079,0.181174 -0.03591,0.05609 -0.201588,0.02602 -0.260675,0.02602 -0.263283,0 -0.526643,-0.01535 -0.790386,-0.01535 -0.435328,0 -0.87004,-0.0178 -1.304526,-0.02303 -0.436093,-0.0052 -0.8774056,0.01511 -1.312194,-0.01465 -0.2081104,-0.01427 -0.420548,-0.0084 -0.6292419,-0.0084 -0.085046,0 -0.2063593,0.02194 -0.2839252,-0.01535 M 6.4714655,3.9565523 c 0.038049,0.015589 0.00524,0.1558061 0.00126,0.1890172 -0.00418,0.034681 -0.00534,0.091501 -0.02841,0.1194484 -0.017394,0.021111 -0.052715,0.022072 -0.077835,0.025159 -0.061655,0.00757 -0.1840846,0.064178 -0.2430026,0.034904 -0.040107,-0.019937 0.02908,-0.086541 0.044173,-0.1027736 0.068623,-0.073797 0.1419776,-0.1444567 0.2141797,-0.2147476 0.018917,-0.018413 0.058452,-0.06379 0.089647,-0.051007 M 3.7651101,11.550662 h -0.015345 c -0.029177,-0.122549 -0.015346,-0.258526 -0.015346,-0.383684 0,-0.187161 -0.00766,-0.373018 -0.00766,-0.560179 0,-0.195139 -0.025634,-0.396421 -0.014637,-0.590871 0.011049,-0.1951431 0.048414,-0.3896691 0.073855,-0.5831992 0.061712,-0.4693152 0.1594663,-0.9453968 0.303394,-1.3966097 0.085474,-0.2679176 0.175044,-0.5325207 0.2678953,-0.7980602 0.021897,-0.062615 0.04957,-0.1225107 0.073923,-0.184137 0.00787,-0.01982 0.018927,-0.053598 0.047104,-0.047367 0.050695,0.011196 0.073933,0.1356764 0.084891,0.1777822 0.035602,0.1367907 0.011813,0.2808105 -0.049308,0.4067039 -0.039077,0.080485 -0.132646,0.1769485 -0.066352,0.2678885 0.098906,0.1356629 0.1950876,0.00272 0.3151737,-0.019733 0.1238755,-0.02312 0.2154455,0.036893 0.2976538,0.1237386 0.1457078,0.1539115 0.1855104,0.422497 0.1937598,0.6256796 0.017841,0.4397256 -0.073554,0.8800171 -0.3339582,1.2424452 -0.068934,0.09591 -0.1397143,0.1973651 -0.2341932,0.2701111 -0.121182,0.09332 -0.2590937,0.11572 -0.3990301,0.05042 -0.082659,-0.0386 -0.2120308,-0.1905381 -0.2851308,-0.07429 -0.064062,0.101985 0.019704,0.204505 0.051637,0.299274 0.033681,0.09999 0.036427,0.210183 0.033865,0.314621 -0.00475,0.19537 -0.1156803,0.386445 -0.1957543,0.560176 -0.04528,0.09823 -0.077301,0.203123 -0.1264243,0.299275 M 11.914552,8.4154968 c -0.366879,0.059072 -0.460268,0.5895537 -0.323139,0.8714212 0.07796,0.1601498 0.242334,0.2932122 0.430569,0.2662774 0.618038,-0.088327 0.56555,-1.2460507 -0.107425,-1.1376986 M 9.4129361,9.2255297 h -0.00766 C 9.3625216,9.0998722 9.3401196,8.9695207 9.3015963,8.8418453 9.2788836,8.766311 9.255705,8.6889859 9.2399031,8.6116365 c -0.010124,-0.049501 -0.01009,-0.1143759 -0.032059,-0.160011 -0.021131,-0.043892 -0.2459184,-0.041436 -0.270451,0 -0.035049,0.059199 -0.019005,0.1912284 -0.023916,0.2597684 -0.012958,0.1807386 -0.035175,0.364929 -0.058538,0.54483 -0.00766,0.058781 -0.048376,0.2057315 -0.015841,0.2576047 0.025256,0.040214 0.1287956,0.015802 0.1671481,0.010982 l 0.022906,-0.3913611 0.023139,-0.4680932 c 0.060548,0.046124 0.056122,0.1599419 0.076039,0.2302106 0.058189,0.2053082 0.1497981,0.4170625 0.1771931,0.6292398 0.042892,1.534e-4 0.1072012,0.020723 0.1424998,-0.011958 C 9.4914591,9.4724907 9.5028151,9.344104 9.5206161,9.286935 9.5849971,9.0795011 9.6275872,8.8476957 9.7122278,8.6500214 h 0.00766 c 0.058471,0.2081862 0.010824,0.4526621 0.036146,0.6676078 0.00542,0.045891 -0.020645,0.16698 0.015654,0.2000532 0.035677,0.032458 0.1401974,0.00718 0.1860859,0.00718 0,-0.2695677 -0.050496,-0.5370572 -0.053712,-0.8057349 C 9.9032874,8.6521065 9.8995517,8.5863038 9.8967217,8.519613 9.8955917,8.493425 9.9030417,8.45396 9.8777607,8.436576 9.8395447,8.410282 9.6454022,8.410991 9.6203862,8.452281 9.5913742,8.500182 9.5953732,8.587376 9.5777952,8.6423971 9.5160242,8.8354822 9.4677554,9.0307075 9.4129653,9.2255951 m 1.0435867,0.2992773 c 0.02893,0.00534 0.05502,0.00679 0.08441,0.00515 0.02547,-0.00135 0.07421,0.00359 0.09516,-0.013055 0.02263,-0.017957 0.01228,-0.074049 0.01228,-0.099526 0,-0.070594 -0.04321,-0.2384678 0.0056,-0.2959425 0.03545,-0.041698 0.130451,-0.018442 0.178488,-0.029527 0.146568,-0.033806 0.289605,-0.1361151 0.305643,-0.2960969 0.0068,-0.067818 0.01016,-0.1519829 -0.01849,-0.2148611 -0.0749,-0.1641789 -0.309325,-0.1769931 -0.463642,-0.1567274 -0.04114,0.00544 -0.16483,-0.018277 -0.191612,0.01556 -0.01489,0.018791 -0.0079,0.057452 -0.0079,0.079785 v 0.2071807 0.7980612 m 1.488714,-0.9490093 c 0.126385,-0.02215 0.217472,0.056568 0.276174,0.1586219 0.107583,0.1870692 0.0696,0.6073706 -0.191764,0.6497298 -0.112571,0.018267 -0.20834,-0.06707 -0.258527,-0.1586143 -0.09853,-0.1798486 -0.08318,-0.6046469 0.174117,-0.6497374 m -1.288024,0.00844 c 0.06331,-0.020519 0.199744,-0.014152 0.250774,0.03039 0.12109,0.1057588 0.05395,0.2880076 -0.0831,0.3338126 -0.03798,0.012686 -0.146491,0.035137 -0.175113,-0.0035 -0.02801,-0.037845 -0.01673,-0.141535 -0.01673,-0.1875137 0,-0.037661 -0.02018,-0.1588005 0.02416,-0.1731659 M 5.9290843,8.7835163 c 0.088337,-0.019102 0.2061769,-0.00621 0.2761378,0.053249 0.087172,0.074069 0.1359239,0.2363877 0.030691,0.3164694 -0.015811,0.012026 -0.034127,0.01916 -0.053598,0.022703 -0.015336,0.00281 -0.030799,0.00301 -0.046036,-4.949e-4 C 5.9981674,9.1435188 6.1268691,8.9935926 6.028702,8.949991 5.986431,8.931219 5.941006,8.98967 5.919582,9.01842 5.849649,9.11225 5.8066873,9.2279563 5.7784944,9.3407151 c -0.082125,0.3284328 0.044494,0.6669169 -0.013074,0.9975759 -0.014724,0.08464 -0.065033,0.169588 -0.1030118,0.245558 -0.064906,0.129836 -0.1640857,0.305259 -0.3241888,0.328354 -0.1920271,0.0277 -0.3657967,-0.04842 -0.4263804,-0.243944 -0.033302,-0.107503 -0.030284,-0.343091 0.1194329,-0.366724 0.1708625,-0.02693 0.1946963,0.116485 0.1723816,0.243944 -0.00874,0.04965 0.013113,0.122319 0.073185,0.128381 0.1004644,0.01016 0.1825722,-0.192992 0.211295,-0.266506 C 5.6409232,10.016382 5.4664586,9.5771398 5.5991241,9.1795666 5.6492278,9.029393 5.7570103,8.8207458 5.929092,8.7835299 m 1.6421661,0 c 0.2387816,-0.051541 0.3863618,0.1598033 0.4704647,0.349995 0.185918,0.4204401 -0.035554,0.8984341 0.1424776,1.3198701 0.025857,0.06124 0.1098401,0.235353 0.1927929,0.223458 0.050841,-0.0073 0.084455,-0.06906 0.076825,-0.116026 -0.017442,-0.10712 -0.047775,-0.196139 0.07665,-0.249625 0.024188,-0.01038 0.05055,-0.01351 0.076738,-0.01027 0.094161,0.01175 0.141671,0.116409 0.155354,0.198518 0.026799,0.160839 -0.074476,0.369028 -0.2397636,0.411693 C 8.224198,10.988183 8.0779836,10.757053 7.9607229,10.52247 7.8238634,10.248667 7.9016219,9.9174699 7.9087859,9.6246419 7.9133475,9.438404 7.8651462,9.2462235 7.7810733,9.0798122 7.7564096,9.0309993 7.6432388,8.885277 7.6023297,8.9955228 c -0.016685,0.04496 0.022422,0.092229 -0.00175,0.1376721 -0.045387,0.085347 -0.171246,0.056063 -0.2128063,-0.015122 -0.077107,-0.132087 0.053355,-0.30644 0.1834846,-0.3345328 m 2.609051,0.6068333 c -0.106816,0.020413 -0.08294,0.2111777 0.03069,0.1859326 0.108124,-0.024101 0.09362,-0.2097217 -0.03069,-0.1859326 m 1.120432,4.942e-4 c -0.10221,0.025401 -0.07352,0.2117939 0.03829,0.1845532 0.115566,-0.028168 0.09023,-0.2163977 -0.03829,-0.1845532 m 1.342815,-3.292e-4 c -0.105969,0.022791 -0.08088,0.2092607 0.03069,0.1857793 0.111883,-0.023479 0.09439,-0.2126375 -0.03069,-0.1857793 M 3.7526592,12.722982 c 0.033487,-0.01106 0.046542,0.08126 0.051638,0.10168 0.033506,0.134059 0.06907,0.257528 0.1272833,0.383685 0.1848116,0.400488 0.4928559,0.666688 0.9001829,0.824611 0.076515,0.02971 0.156474,0.05609 0.2301709,0.09231 0.018025,0.0089 0.065101,0.04236 0.028255,0.0607 -0.071914,0.03576 -0.2111941,-0.0021 -0.2891201,-0.0032 -0.2535309,-0.003 -0.5066078,-0.01995 -0.7596941,-0.02302 -0.076301,-8.24e-4 -0.1545542,-0.002 -0.2302089,-0.01213 -0.026333,-0.0035 -0.066682,0.0011 -0.079785,-0.02801 -0.034458,-0.07643 -0.00466,-0.228908 -0.00466,-0.312857 0,-0.25584 -0.00378,-0.512139 0.00738,-0.767367 0.0035,-0.07904 2.31e-4,-0.158769 3.125e-4,-0.237885 7.8e-6,-0.0201 -0.00747,-0.07013 0.018229,-0.07864 z"
       id="path24" />
  </g>
</svg>
